<svg id="Layer_1" data-name="Layer 1" xmlns="http://www.w3.org/2000/svg" viewBox="0 0 24 26"><defs><style>.cls-1{fill:#b7b7b7;}</style></defs><title>avatar_view</title><path class="cls-1" d="M24,24c0,.37,0,.73-.05,1.09A1,1,0,0,1,23,26H1.05a1,1,0,0,1-1-.91c0-.36,0-.72,0-1.09a12,12,0,0,1,4.26-9.17,1,1,0,0,1,1.41.11A8.3,8.3,0,0,0,12,18a8.3,8.3,0,0,0,6.33-3.06,1,1,0,0,1,1.41-.11A12,12,0,0,1,24,24Z"/><path class="cls-1" d="M18.6,8a9.08,9.08,0,0,1-1.53,5.12A6.2,6.2,0,0,1,12,16a6.2,6.2,0,0,1-5.07-2.88A9.08,9.08,0,0,1,5.4,8c0-4.42,2.95-8,6.6-8S18.6,3.58,18.6,8Z"/></svg>