<svg xmlns="http://www.w3.org/2000/svg" id="Layer_1" data-name="Layer 1" viewBox="0 0 18.73 28"><defs><style>.cls-1{fill:#b7b7b7}</style></defs><title>drop_avatar</title><path d="M11.86,9.36A2.36,2.36,0,1,1,9.5,7,2.36,2.36,0,0,1,11.86,9.36Z" class="cls-1" transform="translate(-0.14)"/><path d="M9.5,0A9.37,9.37,0,0,0,.14,9.36,9.28,9.28,0,0,0,2.45,15.5L9.52,28l7.09-12.55A9.36,9.36,0,0,0,9.5,0ZM5.35,5.21a5.89,5.89,0,0,1,8.3,0,5.93,5.93,0,0,1,1.71,4.15,5.8,5.8,0,0,1-.89,3.08,5.73,5.73,0,0,1-.82,1.07,5.84,5.84,0,0,1-9.12-1.07,5.8,5.8,0,0,1-.89-3.08A5.93,5.93,0,0,1,5.35,5.21Z" class="cls-1" transform="translate(-0.14)"/><path d="M7.14,9.36A2.36,2.36,0,1,1,9.5,11.73,2.36,2.36,0,0,1,7.14,9.36Z" class="cls-1" transform="translate(-0.14)"/><path d="M11.86,9.36A2.36,2.36,0,1,1,9.5,7,2.36,2.36,0,0,1,11.86,9.36Z" class="cls-1" transform="translate(-0.14)"/><path d="M9.49,14a.11.11,0,0,0,0,.1L9.47,14Z" class="cls-1" transform="translate(-0.14)"/></svg>