<svg xmlns="http://www.w3.org/2000/svg" id="Layer_1" data-name="Layer 1" viewBox="0 0 26 22"><defs><style>.cls-1{fill:#b7b7b7}</style></defs><title>hd</title><polygon points="10.98 4.95 10.98 8.15 8.19 8.15 8.19 4.95 6.58 4.95 6.58 12.95 8.19 12.95 8.19 9.75 10.98 9.75 10.98 12.95 12.59 12.95 12.59 4.95 10.98 4.95" class="cls-1"/><path d="M15.42,5h-1.6v8h1.6a4,4,0,1,0,0-8Zm0,6.4V6.55a2.4,2.4,0,1,1,0,4.8Z" class="cls-1"/><path d="M25,0H1A1,1,0,0,0,0,1V17a1,1,0,0,0,1,1h9v2H9v2h8V20H16V18h9a1,1,0,0,0,1-1V1A1,1,0,0,0,25,0Zm0,17H1V1H25Z" class="cls-1"/></svg>