<svg id="Layer_1" data-name="Layer 1" xmlns="http://www.w3.org/2000/svg" viewBox="0 0 30 30"><defs><style>.cls-1{fill:#b7b7b7;}</style></defs><title>laser_pointer</title><circle class="cls-1" cx="15" cy="15" r="1.25"/><path class="cls-1" d="M16.88,2.64V3.91a11.25,11.25,0,0,1,9.21,9.22h1.27A12.5,12.5,0,0,0,16.88,2.64Zm9.21,14.24a11.28,11.28,0,0,1-9.21,9.21v1.27A12.52,12.52,0,0,0,27.36,16.88Zm-22.18,0H2.64A12.51,12.51,0,0,0,13.13,27.36V26.09A11.27,11.27,0,0,1,3.91,16.88ZM2.64,13.13H3.91a11.26,11.26,0,0,1,9.22-9.22V2.64A12.51,12.51,0,0,0,2.64,13.13Z"/><rect class="cls-1" x="14.38" width="1.25" height="7.5"/><rect class="cls-1" x="14.38" y="22.5" width="1.25" height="7.5"/><rect class="cls-1" y="14.38" width="7.5" height="1.25"/><rect class="cls-1" x="22.5" y="14.38" width="7.5" height="1.25"/></svg>