<svg xmlns="http://www.w3.org/2000/svg" id="Layer_1" data-name="Layer 1" viewBox="0 0 26 30"><defs><style>.cls-1{fill:#b7b7b7}</style></defs><title>layers</title><path d="M25.57,13.59l-2.78-1.82,2.83-2.15a1,1,0,0,0-.05-1.56L13.51.15a.94.94,0,0,0-1,0L.43,8.06a1,1,0,0,0,0,1.56l2.83,2.15L.43,13.59a1,1,0,0,0,0,1.56L3.21,17.3.43,19.12a1,1,0,0,0,0,1.56l12,9.13a1,1,0,0,0,1.14,0l12.05-9.13a1,1,0,0,0-.05-1.56L22.79,17.3l2.83-2.15A1,1,0,0,0,25.57,13.59ZM12.43,18.75a1,1,0,0,0,1.14,0l4.5-3.41,3.07,2L13,23.52,4.86,17.35l3.07-2ZM.94,14.39l3.08-2,3.11,2.36-3.08,2Zm24.12,5.53L13,29.05.94,19.92l3.08-2,8.41,6.37a1,1,0,0,0,1.14,0L22,17.91ZM22,16.75l-3.08-2L22,12.37l3.08,2Z" class="cls-1" transform="translate(0 0)"/></svg>