<svg id="Layer_1" data-name="Layer 1" xmlns="http://www.w3.org/2000/svg" viewBox="0 0 30 30"><defs><style>.cls-1{fill:#b7b7b7;}</style></defs><title>lighting_settings</title><circle class="cls-1" cx="15" cy="14.96" r="7.02"/><rect class="cls-1" x="12" y="2" width="6" height="2" rx="1" transform="translate(12 18) rotate(-90)"/><rect class="cls-1" x="12" y="26" width="6" height="2" rx="1" transform="translate(-12 42) rotate(-90)"/><rect class="cls-1" y="14" width="6" height="2" rx="1" transform="translate(6 30) rotate(180)"/><rect class="cls-1" x="24" y="14" width="6" height="2" rx="1" transform="translate(54 30) rotate(180)"/><rect class="cls-1" x="3.51" y="5.51" width="6" height="2" rx="1" transform="translate(6.51 15.73) rotate(-135)"/><rect class="cls-1" x="20.49" y="22.49" width="6" height="2" rx="1" transform="translate(23.49 56.7) rotate(-135)"/><rect class="cls-1" x="3.51" y="22.49" width="6" height="2" rx="1" transform="translate(27.73 35.49) rotate(135)"/><rect class="cls-1" x="20.49" y="5.51" width="6" height="2" rx="1" transform="translate(44.7 -5.49) rotate(135)"/></svg>