<svg id="Layer_1" data-name="Layer 1" xmlns="http://www.w3.org/2000/svg" viewBox="0 0 30 26"><defs><style>.cls-1{fill:#b7b7b7;}</style></defs><title>minimap</title><path class="cls-1" d="M21,13a1,1,0,1,1-1-1A1,1,0,0,1,21,13Z"/><path class="cls-1" d="M20,9a4,4,0,0,0-3,6.65L20,21l3-5.38A4,4,0,0,0,20,9Zm-1.78,2.24a2.51,2.51,0,0,1,3.56,0,2.5,2.5,0,0,1,.35,3.09,2.32,2.32,0,0,1-.35.46,2.53,2.53,0,0,1-1.78.74,2.52,2.52,0,0,1-1.78-4.29Z"/><path class="cls-1" d="M19,13a1,1,0,1,1,1,1A1,1,0,0,1,19,13Z"/><path class="cls-1" d="M21,13a1,1,0,1,1-1-1A1,1,0,0,1,21,13Z"/><path class="cls-1" d="M15.26,14.05s0,0,0,0l0,0Z"/><path class="cls-1" d="M29.17.42a.92.92,0,0,0-.39.09l-8.4,4.25a.77.77,0,0,1-.76,0L10.38.09a.85.85,0,0,0-.76,0L.45,4.73A.81.81,0,0,0,0,5.45V24.63a.82.82,0,0,0,.84.81.8.8,0,0,0,.46-.14l8.23-5.51a.89.89,0,0,1,.47-.14.86.86,0,0,1,.47.14l9.06,6.07A.89.89,0,0,0,20,26a.86.86,0,0,0,.47-.14l9.17-6.14a.82.82,0,0,0,.36-.67V1.24A.83.83,0,0,0,29.17.42Zm-.84,18.2L20,24.2l-8.59-5.75a2.53,2.53,0,0,0-1-.37V16.22H9.58v1.86a2.53,2.53,0,0,0-1,.37L1.67,23.08V6L9.58,2V4h.84v-2l8.43,4.27A2.57,2.57,0,0,0,20,6.49a2.54,2.54,0,0,0,1.15-.28l7.18-3.63Z"/><rect class="cls-1" x="9.58" y="11.32" width="0.83" height="2.45"/><rect class="cls-1" x="9.58" y="6.43" width="0.83" height="2.45"/></svg>