<svg id="Layer_1" data-name="Layer 1" xmlns="http://www.w3.org/2000/svg" viewBox="0 0 31.4 28"><defs><style>.cls-1{fill:#b13131;}.cls-2{fill:none;}</style></defs><title>note</title><circle class="cls-1" cx="15.7" cy="21.83" r="1.5"/><path class="cls-1" d="M16,10h0a1.89,1.89,0,0,0-1.75,2.19L15,18.82h2l.75-6.62A1.89,1.89,0,0,0,16,10Z" transform="translate(-0.3 0)"/><g id="Path_35054" data-name="Path 35054"><path class="cls-2" d="M16,28H28.55a3.14,3.14,0,0,0,3.14-3.15,3.11,3.11,0,0,0-.42-1.57L25,12.43,18.73,1.57A3.15,3.15,0,0,0,14.43.42a3.2,3.2,0,0,0-1.16,1.15L7,12.43.73,23.28A3.14,3.14,0,0,0,3.46,28Z" transform="translate(-0.3 0)"/><path class="cls-1" d="M28.55,26a1.15,1.15,0,0,0,1-1.72L23.27,13.43,17,2.57a1.14,1.14,0,0,0-2,0L8.73,13.43,2.46,24.28a1.15,1.15,0,0,0,1,1.72h25.1m0,2H3.45A3.14,3.14,0,0,1,.73,23.28L7,12.43,13.27,1.57a3.16,3.16,0,0,1,5.46,0L25,12.43l6.27,10.85A3.14,3.14,0,0,1,28.55,28Z" transform="translate(-0.3 0)"/></g></svg>