<svg xmlns="http://www.w3.org/2000/svg" width="31.029" height="23.106" viewBox="0 0 31.029 23.106">
  <g id="Group_7975" data-name="Group 7975" transform="translate(-12.485 -16.447)">
    <path id="Path_35453" data-name="Path 35453" d="M42.248,19.774a5.638,5.638,0,0,1-2.06,7.688l-4.552,2.629a8.613,8.613,0,0,0,.222-2.128l3.464-2a3.9,3.9,0,1,0-3.9-6.75L29.179,22.82l-3.114,1.828a3.831,3.831,0,0,0-1.494,2.332,3.746,3.746,0,0,0-.025,1.514,3.849,3.849,0,0,0,1.3,2.25,3.725,3.725,0,0,0,1.324.735l-1.815,1.048a5.2,5.2,0,0,1-1.069-.882,5.475,5.475,0,0,1-1.3-2.25,5.224,5.224,0,0,1-.229-1.367,5.368,5.368,0,0,1,.167-1.6,5.593,5.593,0,0,1,2.27-3.291c.116-.076.239-.157.367-.231l9-5.2A5.639,5.639,0,0,1,42.248,19.774Z" fill="#b7b7b7" stroke="rgba(0,0,0,0)" stroke-miterlimit="10" stroke-width="1"/>
    <path id="Path_35454" data-name="Path 35454" d="M32.5,25.4a5.349,5.349,0,0,1,.514,1.2,5.224,5.224,0,0,1,.229,1.367,5.368,5.368,0,0,1-.167,1.6,5.588,5.588,0,0,1-2.27,3.29c-.116.077-.239.158-.367.232l-9,5.2a5.628,5.628,0,0,1-5.628-9.749l4.552-2.628a8.6,8.6,0,0,0-.222,2.127l-3.464,2a3.9,3.9,0,1,0,3.9,6.75l9-5.2a3.384,3.384,0,0,0,.362-.239,3.831,3.831,0,0,0,1.494-2.332,3.746,3.746,0,0,0,.025-1.514,3.849,3.849,0,0,0-1.3-2.25,3.725,3.725,0,0,0-1.324-.735l1.815-1.048a5.2,5.2,0,0,1,1.069.882A5.364,5.364,0,0,1,32.5,25.4Z" fill="#b7b7b7" stroke="rgba(0,0,0,0)" stroke-miterlimit="10" stroke-width="1"/>
  </g>
</svg>
