<svg id="Layer_1" data-name="Layer 1" xmlns="http://www.w3.org/2000/svg" viewBox="0 0 30 30"><defs><style>.cls-1{fill:#b7b7b7;}</style></defs><title>screenshot</title><path class="cls-1" d="M21.56,9.38H8.44a.94.94,0,0,0-.94.93v9.38a1,1,0,0,0,.94.94h2.81V16.88L15,14.37l3.75,2.51v3.75h2.81a1,1,0,0,0,.94-.94V10.31A.94.94,0,0,0,21.56,9.38Zm-1.87,3.75a.94.94,0,1,1,.93-.94A.95.95,0,0,1,19.69,13.13Z"/><polygon class="cls-1" points="9.37 30 0 30 0 20.63 1.88 20.63 1.88 28.13 9.37 28.13 9.37 30"/><polygon class="cls-1" points="30 30 20.62 30 20.62 28.13 28.13 28.13 28.13 20.63 30 20.63 30 30"/><polygon class="cls-1" points="30 9.38 28.13 9.38 28.13 1.88 20.62 1.88 20.62 0 30 0 30 9.38"/><polygon class="cls-1" points="1.88 9.38 0 9.38 0 0 9.37 0 9.37 1.88 1.88 1.88 1.88 9.38"/></svg>