<svg xmlns="http://www.w3.org/2000/svg" width="28" height="28" viewBox="0 0 28 28">
  <g id="Group_8003" data-name="Group 8003" transform="translate(-14 -14)">
    <path id="Path_35113" data-name="Path 35113" d="M41.067,27.067h-1.96a4.536,4.536,0,0,0-1.046-2.119,3.893,3.893,0,0,0-.27-.289,4.466,4.466,0,0,0-1.288-.887c-.094-.047-.187-.084-.29-.131l-.168-.056c-.074-.028-.149-.046-.224-.074a4.585,4.585,0,0,0-.812-.15,4.06,4.06,0,0,0-.952,0,4.6,4.6,0,0,0-.812.15c-.074.028-.149.046-.224.074l-.168.056c-.1.047-.2.084-.289.131a4.466,4.466,0,0,0-1.288.887,3.906,3.906,0,0,0-.271.289,4.544,4.544,0,0,0-1.045,2.119H14.933a.933.933,0,0,0,0,1.866H29.96A4.544,4.544,0,0,0,31,31.052a3.906,3.906,0,0,0,.271.289,4.466,4.466,0,0,0,1.288.887c.093.047.187.084.289.131l.168.056c.075.028.15.046.224.074a4.6,4.6,0,0,0,.812.15,4.06,4.06,0,0,0,.952,0,4.585,4.585,0,0,0,.812-.15c.075-.028.15-.046.224-.074l.168-.056c.1-.047.2-.084.29-.131a4.466,4.466,0,0,0,1.288-.887,3.893,3.893,0,0,0,.27-.289,4.536,4.536,0,0,0,1.046-2.119h1.96a.933.933,0,0,0,0-1.866ZM34.533,30.8A2.792,2.792,0,0,1,31.9,28.933a2.675,2.675,0,0,1,0-1.866,2.789,2.789,0,0,1,5.264,0,2.675,2.675,0,0,1,0,1.866A2.8,2.8,0,0,1,34.533,30.8Z" fill="#b7b7b7"/>
    <path id="Path_35114" data-name="Path 35114" d="M41.067,17.733H31.64a4.668,4.668,0,0,0-9.147,0h-7.56a.934.934,0,0,0,0,1.867h7.56a4.668,4.668,0,0,0,9.147,0h9.427a.934.934,0,0,0,0-1.867Zm-14,3.734A2.79,2.79,0,0,1,24.435,19.6a2.678,2.678,0,0,1,0-1.867,2.789,2.789,0,0,1,5.264,0,2.678,2.678,0,0,1,0,1.867A2.8,2.8,0,0,1,27.067,21.467Z" fill="#b7b7b7"/>
    <path id="Path_35115" data-name="Path 35115" d="M41.067,36.4H27.907c-.01-.028-.01-.047-.019-.075-.019-.1-.047-.214-.075-.317a4.407,4.407,0,0,0-.177-.495c-.065-.14-.131-.27-.2-.4s-.14-.243-.215-.364a5.7,5.7,0,0,0-.364-.467c-.084-.1-.177-.2-.27-.289A4.466,4.466,0,0,0,25.3,33.1c-.075-.037-.15-.065-.234-.1l-.056-.028-.168-.056c-.065-.028-.13-.038-.2-.066-.009,0-.018-.009-.028-.009a4.584,4.584,0,0,0-.812-.149,4.06,4.06,0,0,0-.952,0,4.6,4.6,0,0,0-.812.149c-.009,0-.018.009-.028.009-.065.028-.13.038-.2.066l-.168.056L21.6,33c-.084.037-.158.065-.233.1a4.466,4.466,0,0,0-1.288.887c-.093.093-.187.187-.271.289-.13.15-.252.308-.364.467-.074.121-.149.233-.214.364s-.131.261-.2.4a4.412,4.412,0,0,0-.178.495c-.028.1-.056.215-.074.317-.01.028-.01.047-.019.075H14.933a.933.933,0,0,0,0,1.867H18.76c.009.028.009.046.019.074.018.1.046.215.074.318a4.326,4.326,0,0,0,.178.494c.065.14.13.271.2.4s.14.242.214.364a5.911,5.911,0,0,0,.364.466c.084.1.178.2.271.29a4.463,4.463,0,0,0,1.288.886c.075.038.149.066.233.1l.056.028.168.056c.075.028.15.047.224.075a4.694,4.694,0,0,0,.812.149,4.06,4.06,0,0,0,.952,0,4.676,4.676,0,0,0,.812-.149c.075-.028.15-.047.224-.075l.168-.056.056-.028c.084-.037.159-.065.234-.1a4.463,4.463,0,0,0,1.288-.886c.093-.094.186-.187.27-.29a5.685,5.685,0,0,0,.364-.466c.075-.122.15-.234.215-.364s.131-.262.2-.4a4.321,4.321,0,0,0,.177-.494c.028-.1.056-.215.075-.318.009-.028.009-.046.019-.074h13.16a.933.933,0,0,0,0-1.867ZM23.333,40.133A2.793,2.793,0,0,1,20.7,38.267a2.678,2.678,0,0,1,0-1.867,2.789,2.789,0,0,1,5.264,0,2.678,2.678,0,0,1,0,1.867A2.8,2.8,0,0,1,23.333,40.133Z" fill="#b7b7b7"/>
  </g>
</svg>
