<svg id="Layer_1" data-name="Layer 1" xmlns="http://www.w3.org/2000/svg" viewBox="0 0 28 28"><defs><style>.cls-1{fill:#505050;}</style></defs><title>style_filter</title><path class="cls-1" d="M27.07,13.07h-2A4.56,4.56,0,0,0,24.06,11a3.71,3.71,0,0,0-.27-.29,4.37,4.37,0,0,0-1.29-.89l-.29-.13-.16-.05-.23-.08A5.27,5.27,0,0,0,21,9.36l-.48,0a3.71,3.71,0,0,0-.47,0,5.27,5.27,0,0,0-.81.15L19,9.59l-.17.05-.29.13a4.45,4.45,0,0,0-1.28.89A2.44,2.44,0,0,0,17,11,4.47,4.47,0,0,0,16,13.07H.93a.93.93,0,0,0,0,1.86H16A4.47,4.47,0,0,0,17,17.05a2.44,2.44,0,0,0,.27.29,4.45,4.45,0,0,0,1.28.89l.29.13.17.05.23.08a5.27,5.27,0,0,0,.81.15,3.71,3.71,0,0,0,.47,0,3.87,3.87,0,0,0,.48,0,5.27,5.27,0,0,0,.81-.15l.23-.08.16-.05.29-.13a4.37,4.37,0,0,0,1.29-.89,3.71,3.71,0,0,0,.27-.29,4.56,4.56,0,0,0,1.05-2.12h2a.93.93,0,0,0,0-1.86ZM20.53,16.8a2.78,2.78,0,0,1-2.63-1.87,2.63,2.63,0,0,1,0-1.86,2.79,2.79,0,0,1,5.27,0,2.78,2.78,0,0,1,0,1.86A2.8,2.8,0,0,1,20.53,16.8Z"/><path class="cls-1" d="M27.07,3.73H17.64a4.67,4.67,0,0,0-9.15,0H.93a.94.94,0,0,0,0,1.87H8.49a4.67,4.67,0,0,0,9.15,0h9.43a.94.94,0,0,0,0-1.87Zm-14,3.74A2.81,2.81,0,0,1,10.43,5.6a2.64,2.64,0,0,1-.16-.93,2.65,2.65,0,0,1,.16-.94,2.8,2.8,0,0,1,5.27,0,2.66,2.66,0,0,1,0,1.87A2.81,2.81,0,0,1,13.07,7.47Z"/><path class="cls-1" d="M27.07,22.4H13.91a.64.64,0,0,0,0-.07,3,3,0,0,0-.08-.32,4.2,4.2,0,0,0-.17-.5c-.07-.14-.13-.27-.2-.4l-.21-.36c-.12-.16-.24-.32-.37-.47s-.18-.19-.27-.29a4.34,4.34,0,0,0-1.29-.88L11.07,19,11,19l-.16,0-.2-.07h0a5.27,5.27,0,0,0-.81-.15l-.48,0-.47,0a5.27,5.27,0,0,0-.81.15H8l-.2.07-.17,0L7.6,19l-.24.11A4.42,4.42,0,0,0,6.08,20a3.58,3.58,0,0,0-.27.29,4,4,0,0,0-.37.47c-.07.12-.15.23-.21.36s-.13.26-.2.4-.13.33-.18.5,0,.21-.07.32a.64.64,0,0,0,0,.07H.93a.94.94,0,0,0,0,1.87H4.76a.64.64,0,0,1,0,.07l.07.32c.05.17.12.33.18.49s.13.27.2.4a3.25,3.25,0,0,0,.21.37,4,4,0,0,0,.37.47,2.37,2.37,0,0,0,.27.28,4.26,4.26,0,0,0,1.28.89l.24.1.05,0,.17.06.23.07a4.29,4.29,0,0,0,.81.15,3.71,3.71,0,0,0,.47,0,3.87,3.87,0,0,0,.48,0,4.29,4.29,0,0,0,.81-.15l.23-.07.16-.06.06,0,.23-.1a4.19,4.19,0,0,0,1.29-.89,3.57,3.57,0,0,0,.27-.28c.13-.15.25-.31.37-.47s.14-.23.21-.37.13-.26.2-.4a4,4,0,0,0,.17-.49c0-.1.06-.22.08-.32a.64.64,0,0,1,0-.07H27.07a.94.94,0,0,0,0-1.87ZM9.33,26.13A2.79,2.79,0,0,1,6.7,24.27a2.66,2.66,0,0,1,0-1.87,2.79,2.79,0,0,1,5.27,0,2.81,2.81,0,0,1,0,1.87A2.81,2.81,0,0,1,9.33,26.13Z"/></svg>