<svg xmlns="http://www.w3.org/2000/svg" id="Layer_1" data-name="Layer 1" viewBox="0 0 282.74 42"><defs><style>.cls-1{fill:#fff}.cls-2{fill:#7a9c49}</style></defs><title>summerwood_logo</title><path d="M61.35,9.76H59.28c-.6-3.66-3.39-6.23-7.65-6.23-2.58,0-4.9.85-4.9,3.18,0,1.07.6,2.06,2.45,2.53l7.35,2c3.14.86,5.85,1.85,5.85,5.76,0,4.43-4.43,6.49-8.86,6.49a11.51,11.51,0,0,1-7.09-2.19L45.23,23H43.46V15h2c1.21,3.66,2.8,6.19,7.87,6.19,2.79,0,5.89-1.07,5.89-3.56a2.67,2.67,0,0,0-2.28-2.54l-9-2.24a5.53,5.53,0,0,1-4.55-5.28c0-4,4-6.15,8.34-6.15a13.26,13.26,0,0,1,6.79,2.11l1.16-1.64h1.76V9.76Z" class="cls-1" transform="translate(-0.13)"/><path d="M78.89,22.91V20.55a7.31,7.31,0,0,1-6.19,2.88c-2.88,0-5.89-1.46-5.89-4.69V10A.8.8,0,0,0,66,9.2H63.71V7.48L70,7V18.23c0,2.23,1.76,3.05,3.61,3.05,2.5,0,5.29-1.76,5.29-3.91V10A.81.81,0,0,0,78,9.2H75.79V7.48L82.15,7V20.33a.76.76,0,0,0,.86.78h2.58V23h-6.7Z" class="cls-1" transform="translate(-0.13)"/><path d="M111,22.91V21.06h1.8c.56,0,1.08-.12,1.08-.9V12c0-1.63-1.46-2.7-3.57-2.7-2.62,0-5,2-5,4.38V20.2a1,1,0,0,0,1,.86h2.24v1.85H99.22V21.06H101c.64,0,1-.25,1-.94V11.69c0-1.63-1.76-2.4-3.48-2.4-2.58,0-5,1.76-5,3.86V20c0,.86.43,1.16,1.16,1.16h2.06V23H87.18V21.11h2c.86,0,1.08-.35,1.08-1.21V10a.78.78,0,0,0-.86-.77H86.93V7.48L93.55,7v2.8a7.36,7.36,0,0,1,6.23-2.88c2.11,0,4.77.9,5.46,3.27a6.47,6.47,0,0,1,6-3.27c2.84,0,5.89,1.42,5.89,4.68V20.2a1,1,0,0,0,1,.86h2.15v1.85Z" class="cls-1" transform="translate(-0.13)"/><path d="M145.69,22.91V21.06h1.81c.56,0,1.07-.12,1.07-.9V12c0-1.63-1.46-2.7-3.57-2.7-2.62,0-4.94,2-4.94,4.38V20.2a1,1,0,0,0,.95.86h2.23v1.85H134V21.06h1.8c.65,0,1-.25,1-.94V11.69c0-1.63-1.76-2.4-3.48-2.4-2.58,0-5,1.76-5,3.86V20c0,.86.43,1.16,1.16,1.16h2.07V23h-9.59V21.11h2c.86,0,1.07-.35,1.07-1.21V10a.78.78,0,0,0-.86-.77h-2.49V7.48L128.28,7v2.8a7.37,7.37,0,0,1,6.23-2.88c2.11,0,4.78.9,5.46,3.27a6.48,6.48,0,0,1,6-3.27c2.84,0,5.89,1.42,5.89,4.68V20.2a1,1,0,0,0,1,.86H155v1.85Z" class="cls-1" transform="translate(-0.13)"/><path d="M159.28,15.52c0,4.38,2.88,5.67,5.89,5.67,4.85,0,5.67-2.79,5.71-3.48H173c-.13,2.45-2.58,5.68-8.17,5.68-6.27,0-9.28-3.49-9.28-8.21s3.27-8.3,9.07-8.3c6.1,0,8.6,3.74,8.6,8.64Zm10.14-2c0-2.37-1.37-4.6-4.9-4.6-3.27,0-5.16,2.15-5.29,4.6Z" class="cls-1" transform="translate(-0.13)"/><path d="M174.45,22.91V21.06h2a1.08,1.08,0,0,0,1.16-1.16V10a.71.71,0,0,0-.77-.77h-2.63V7.48l6.62-.56v3.57a6.28,6.28,0,0,1,6-3.57c2.23,0,3.61,1,3.61,2.88a2.21,2.21,0,0,1-2.28,2.37,1.83,1.83,0,0,1-2-1.77,2.5,2.5,0,0,1,1-1.67,2.85,2.85,0,0,0-.65-.05c-2.66,0-5.67,3-5.67,5.72V20c0,.86.39,1.16,1.16,1.16h3.23V23H174.45Z" class="cls-1" transform="translate(-0.13)"/><path d="M210.39,23.21l-3.91-8.85-3.87,8.85h-2.75L194,10c-.21-.48-.39-.86-1.07-.86h-1.59V7.39h8.29V9.16H198a.53.53,0,0,0-.6.56c0,.34.47,1.46,4.25,9.93l3.57-8c-1-2.28-1.12-2.45-2.15-2.45H202V7.39h9V9.16H208.5c-.39,0-.69.13-.69.43s.73,1.85,4.38,10.1l4.22-9.5a2.2,2.2,0,0,0,.13-.56c0-.39-.35-.47-.65-.47H213.4V7.39h8.3V9.16H220c-.86,0-1.42,1.63-1.64,2.15l-5.16,11.9Z" class="cls-1" transform="translate(-0.13)"/><path d="M231,23.43c-6.1,0-9-3.57-9-8.38S225.78,7,231.32,7s9,3.57,9,8.26S236.78,23.43,231,23.43ZM236.7,15c0-2.75-1.16-6.06-5.5-6.06-4.56,0-5.55,3.48-5.55,6.28s.77,6.32,5.37,6.32S236.7,18,236.7,15Z" class="cls-1" transform="translate(-0.13)"/><path d="M251.27,23.43c-6.1,0-9-3.57-9-8.38S246.07,7,251.62,7s9,3.57,9,8.26S257.12,23.43,251.27,23.43ZM257,15c0-2.75-1.16-6.06-5.5-6.06-4.56,0-5.55,3.48-5.55,6.28s.77,6.32,5.37,6.32S257,18,257,15Z" class="cls-1" transform="translate(-0.13)"/><path d="M276.68,22.91V20.42a7,7,0,0,1-5.76,3c-4.6,0-8.3-3.06-8.3-7.91,0-6,4-8.69,8-8.69,2.19,0,4.81.78,6.06,2.75V3c0-.65-.51-.77-.86-.77h-2.45V.52L279.82,0V20c0,.86.43,1.16,1.2,1.16h1.85V23h-6.19Zm0-8.12c0-3.4-1.72-6-5.55-6s-4.94,3-4.94,6.58c0,3.27,1.37,5.93,5.29,5.93C274.87,21.37,276.68,18.49,276.68,14.79Z" class="cls-1" transform="translate(-0.13)"/><path d="M49.7,35.85a4.43,4.43,0,0,1-2.88.86H45.14v5.08H43.46V29.92h3.36a4.22,4.22,0,0,1,2.88.86,3.17,3.17,0,0,1,1.16,2.54A3.11,3.11,0,0,1,49.7,35.85Zm-1.29-4.12a2.77,2.77,0,0,0-1.72-.48H45.14v4h1.55a3.15,3.15,0,0,0,1.72-.43,1.88,1.88,0,0,0,.73-1.59A2.13,2.13,0,0,0,48.41,31.73Z" class="cls-2" transform="translate(-0.13)"/><path d="M64.53,41.79h-2l-3.1-5.12H58.12v5.12H56.45V29.92H59.8a4.38,4.38,0,0,1,2.84.82,3.17,3.17,0,0,1,1.16,2.49,3.22,3.22,0,0,1-2.71,3.27ZM61.35,31.73a3.14,3.14,0,0,0-2-.43h-1.2v4h1.2a3.21,3.21,0,0,0,2-.43,1.83,1.83,0,0,0,.77-1.59A1.67,1.67,0,0,0,61.35,31.73Z" class="cls-2" transform="translate(-0.13)"/><path d="M75.28,42a5.87,5.87,0,0,1-6.11-6.1,6.11,6.11,0,1,1,12.21,0A5.89,5.89,0,0,1,75.28,42Zm0-10.79a4.35,4.35,0,0,0-4.43,4.64,4.43,4.43,0,1,0,8.85,0A4.34,4.34,0,0,0,75.28,31.21Z" class="cls-2" transform="translate(-0.13)"/><path d="M95.48,40.24a6.61,6.61,0,0,1-4.43,1.55H87.48V29.92h3.57a6.56,6.56,0,0,1,4.43,1.55,5.67,5.67,0,0,1,1.85,4.38A5.69,5.69,0,0,1,95.48,40.24Zm-1.25-7.78a4.56,4.56,0,0,0-3.18-1.12H89.16v9h1.89a4.5,4.5,0,0,0,3.18-1.11,4.43,4.43,0,0,0,1.42-3.4A4.36,4.36,0,0,0,94.23,32.46Z" class="cls-2" transform="translate(-0.13)"/><path d="M112.33,36.93a5.24,5.24,0,0,1-.94,3.61,5.09,5.09,0,0,1-7.14,0,5.19,5.19,0,0,1-1-3.61v-7H105V36.8a4.13,4.13,0,0,0,.56,2.66,3,3,0,0,0,4.56,0,4.47,4.47,0,0,0,.56-2.66V29.92h1.67v7Z" class="cls-2" transform="translate(-0.13)"/><path d="M128.71,40.24A5.57,5.57,0,0,1,124.37,42a5.83,5.83,0,0,1-6.06-6.1,5.86,5.86,0,0,1,6.06-6.11,6,6,0,0,1,4.21,1.55l-.69,1.33a4.68,4.68,0,0,0-3.44-1.46A4.32,4.32,0,0,0,120,35.85a4.35,4.35,0,0,0,4.42,4.65A4.64,4.64,0,0,0,128,39Z" class="cls-2" transform="translate(-0.13)"/><path d="M142.08,31.3h-3.35V41.79h-1.68V31.3H133.7V29.92H142V31.3Z" class="cls-2" transform="translate(-0.13)"/><path d="M153.52,41.05a4.48,4.48,0,0,1-2.93,1,5,5,0,0,1-3.82-2l1-1.12a4,4,0,0,0,3,1.72,2.07,2.07,0,0,0,2.33-2c0-1.25-1.34-1.72-1.94-2s-1.46-.56-1.89-.77a4,4,0,0,1-1.2-.86,2.86,2.86,0,0,1-.78-2.07,2.91,2.91,0,0,1,1.08-2.28,4.17,4.17,0,0,1,2.75-.86,4.56,4.56,0,0,1,3.39,1.55l-.86,1.12A3.75,3.75,0,0,0,151,31.21c-1.16,0-2.06.56-2.06,1.63s.82,1.51,1.55,1.81l2.19.9a5.08,5.08,0,0,1,1.33,1,3,3,0,0,1,.73,2A3.44,3.44,0,0,1,153.52,41.05Z" class="cls-2" transform="translate(-0.13)"/><path d="M5.89,25.71a6.39,6.39,0,0,1-3.95-4.34c5.07.55,7.91-1.29,7.91-1.29-1.68-.56-2.75-3.7-2.75-3.7a16.19,16.19,0,0,0,8.29-2.19c-1.55-.26-2.58-2.75-2.58-2.75A20.48,20.48,0,0,0,26,4.94V1.38H.13V27A11.07,11.07,0,0,0,5.89,25.71Z" class="cls-2" transform="translate(-0.13)"/><path d="M9.76,32.71C6,35.12,2.54,33.23.13,30.91V41.74l10.28-4.81A13.66,13.66,0,0,1,9.76,32.71Z" class="cls-2" transform="translate(-0.13)"/><path d="M26,41.74V34.48c-3.4.9-8.77,1.33-11.31-4.26a25.42,25.42,0,0,1,5.94-9.07,33.53,33.53,0,0,0,3.39-4,.73.73,0,0,1,.18,0S23,25.58,26,30.56V9.5a33.91,33.91,0,0,1-3.91,7.05,35.48,35.48,0,0,1-3.4,4,24.84,24.84,0,0,0-5.93,9.07,7.81,7.81,0,0,0,0,6.15h0Z" class="cls-2" transform="translate(-0.13)"/></svg>