<svg xmlns="http://www.w3.org/2000/svg" id="Layer_1" data-name="Layer 1" viewBox="0 0 586 720"><defs><style>.cls-1{fill:#739345}</style></defs><title>tree</title><path id="Path_35043" d="M586,499.78v78.16c-66.48,17.61-170.95,24.93-220.22-83.89,19.39-53,54.81-115.36,116.34-177.68,25.33-26.12,48.08-52.43,66.48-78.55A14.93,14.93,0,0,1,552,237S528.62,401.85,586,499.78Z" class="cls-1" data-name="Path 35043" transform="translate(0 0)"/><path id="Path_35044" d="M327,482.37c-21,55.6-9.3,98.54.79,120.5h1L586,719.41V720H80.08L281.5,625.62c-13.46-37-12.67-82.71-12.67-82.71-74.2,47.29-141.67,10.3-188.75-35.21,0,0-41.65-35.91-78.49-82.47-.38-.45-1.59-1.69-1.59-1.69s54.14,6.5,75.09,7.27c1.23,0,5,.12,5,.12,72.41.79,113-25.32,113-25.32-66.68-26.91-77.56-85.08-77.56-85.08,99.32,10.88,155.12-25.33,155.12-25.33-33.05-10.88-54-72.41-54-72.41,97.74,0,162.64-43.14,162.64-43.14-30.27-4.94-50.45-53.81-50.45-53.81C453,116.54,540.3,47.88,586,0V89.23a661.76,661.76,0,0,1-76.17,136.92c-18.4,26.12-41.16,52.24-66.48,78.35C381,366.83,346.39,429.15,327,482.37Z" class="cls-1" data-name="Path 35044" transform="translate(0 0)"/></svg>