<svg id="Layer_1" data-name="Layer 1" xmlns="http://www.w3.org/2000/svg" viewBox="0 0 32 31"><defs><style>.cls-1{fill:#505050;}</style></defs><title>turn_off</title><path class="cls-1" d="M29.25,14.17l-.34-.09C28.47,6.23,22.86,0,16,0S3.53,6.23,3.09,14.08l-.34.09a3.76,3.76,0,0,0-2.62,4.6l1.69,6.39a3.71,3.71,0,0,0,4.54,2.65l.54-.15a3.75,3.75,0,0,0,2.62-4.59l-1.7-6.39A3.71,3.71,0,0,0,5.09,14C5.54,7.3,10.26,2,16,2S26.46,7.3,26.91,14a3.71,3.71,0,0,0-2.73,2.67l-1.7,6.39a3.83,3.83,0,0,0,.46,3l-4,2.44A2,2,0,0,0,17,27H15a2,2,0,0,0-2,2v0a2,2,0,0,0,2,2h2a2,2,0,0,0,1.87-1.31l4.73-2.88a3.64,3.64,0,0,0,1.51.85l.54.15a3.71,3.71,0,0,0,4.54-2.65l1.69-6.39A3.76,3.76,0,0,0,29.25,14.17Z" transform="translate(0 0)"/></svg>